<svg width="609" height="56" viewBox="0 0 609 56" fill="none" xmlns="http://www.w3.org/2000/svg">
<g id="Love, Reserved for Two.">
<path id="Vector" d="M603.701 41.58C602.771 41.58 601.901 41.295 601.091 40.725C600.281 40.155 599.876 39.225 599.876 37.935C599.876 36.945 600.131 36.15 600.641 35.55C601.151 34.92 601.736 34.455 602.396 34.155C603.086 33.855 603.671 33.705 604.151 33.705C604.661 33.705 605.231 33.825 605.861 34.065C606.521 34.275 607.091 34.68 607.571 35.28C608.051 35.85 608.291 36.675 608.291 37.755C608.291 38.805 607.841 39.705 606.941 40.455C606.071 41.205 604.991 41.58 603.701 41.58Z" fill="#B80B0B"/>
<path id="Vector_2" d="M583.674 41.8951C581.544 41.8951 579.834 41.1451 578.544 39.6451C577.254 38.1151 576.609 36.0751 576.609 33.5251C576.609 32.7151 576.714 31.8901 576.924 31.0501C577.164 30.2101 577.449 29.4301 577.779 28.7101C577.599 28.4401 577.449 28.0951 577.329 27.6751C577.239 27.2251 577.194 26.7001 577.194 26.1001C577.194 24.1501 577.539 22.3651 578.229 20.7451C578.919 19.0951 579.849 17.6701 581.019 16.4701C582.189 15.2701 583.479 14.3401 584.889 13.6801C586.299 13.0201 587.724 12.6901 589.164 12.6901C591.624 12.6901 593.634 13.5151 595.194 15.1651C596.784 16.8151 597.579 19.3801 597.579 22.8601C597.579 24.6001 597.309 26.3701 596.769 28.1701C596.229 29.9701 595.494 31.6951 594.564 33.3451C593.664 34.9651 592.614 36.4201 591.414 37.7101C590.244 39.0001 588.984 40.0201 587.634 40.7701C586.314 41.5201 584.994 41.8951 583.674 41.8951ZM582.954 26.6851C583.104 27.0151 583.179 27.4051 583.179 27.8551C583.179 28.3051 583.089 28.7701 582.909 29.2501C582.729 29.7301 582.549 30.3751 582.369 31.1851C582.189 31.9651 582.099 33.0901 582.099 34.5601C582.099 34.9501 582.144 35.2801 582.234 35.5501C582.354 35.7901 582.609 35.9101 582.999 35.9101C584.019 35.9101 584.979 35.5801 585.879 34.9201C586.809 34.2601 587.634 33.3901 588.354 32.3101C589.104 31.2301 589.734 30.0301 590.244 28.7101C590.784 27.3601 591.189 25.9951 591.459 24.6151C591.759 23.2051 591.909 21.9001 591.909 20.7001C591.909 19.9201 591.759 19.3801 591.459 19.0801C591.159 18.7801 590.634 18.6301 589.884 18.6301C588.864 18.6301 587.814 18.9601 586.734 19.6201C585.684 20.2501 584.799 21.1201 584.079 22.2301C583.359 23.3101 582.999 24.5401 582.999 25.9201C582.999 26.1901 582.984 26.4451 582.954 26.6851Z" fill="black"/>
<path id="Vector_3" d="M538.614 42.39C537.984 42.39 537.384 42.255 536.814 41.985C536.244 41.715 535.734 41.19 535.284 40.41C534.834 39.66 534.474 38.55 534.204 37.08C533.934 35.58 533.799 33.6 533.799 31.14C533.799 28.83 533.919 26.625 534.159 24.525C534.399 22.395 534.744 20.505 535.194 18.855C535.644 17.175 536.184 15.855 536.814 14.895C537.444 13.905 538.149 13.41 538.929 13.41C539.619 13.41 540.189 13.74 540.639 14.4C541.089 15.06 541.314 16.005 541.314 17.235C541.314 18.195 541.194 19.455 540.954 21.015C540.744 22.575 540.489 24.255 540.189 26.055C539.889 27.825 539.619 29.55 539.379 31.23C539.169 32.88 539.064 34.29 539.064 35.46C539.064 35.67 539.094 35.88 539.154 36.09C539.214 36.27 539.304 36.36 539.424 36.36C539.604 36.36 539.904 35.925 540.324 35.055C540.744 34.185 541.254 33.045 541.854 31.635C542.484 30.195 543.159 28.635 543.879 26.955C544.629 25.275 545.409 23.625 546.219 22.005C547.059 20.355 547.899 18.885 548.739 17.595C549.459 16.485 550.314 15.63 551.304 15.03C552.294 14.43 553.209 14.13 554.049 14.13C554.799 14.13 555.534 14.325 556.254 14.715C557.004 15.105 557.619 15.69 558.099 16.47C558.579 17.25 558.819 18.225 558.819 19.395C558.819 19.845 558.759 20.595 558.639 21.645C558.549 22.665 558.429 23.835 558.279 25.155C558.129 26.445 557.979 27.75 557.829 29.07C557.679 30.36 557.544 31.515 557.424 32.535C557.334 33.555 557.289 34.275 557.289 34.695C557.289 34.755 557.289 34.83 557.289 34.92C557.289 35.25 557.304 35.58 557.334 35.91C557.364 36.21 557.454 36.36 557.604 36.36C557.934 36.36 558.354 35.985 558.864 35.235C559.404 34.455 560.004 33.42 560.664 32.13C561.354 30.84 562.074 29.4 562.824 27.81C563.574 26.22 564.339 24.585 565.119 22.905C565.929 21.195 566.724 19.575 567.504 18.045C568.104 16.755 568.614 15.945 569.034 15.615C569.454 15.255 569.859 15.075 570.249 15.075C570.789 15.075 571.359 15.345 571.959 15.885C572.559 16.425 572.859 17.265 572.859 18.405C572.859 18.795 572.844 19.185 572.814 19.575C572.784 19.965 572.679 20.37 572.499 20.79C571.299 23.82 570.054 26.625 568.764 29.205C567.504 31.755 566.244 33.975 564.984 35.865C563.724 37.755 562.509 39.225 561.339 40.275C560.169 41.325 559.074 41.85 558.054 41.85C555.954 41.85 554.334 41.295 553.194 40.185C552.084 39.045 551.529 37.515 551.529 35.595C551.529 34.875 551.574 33.96 551.664 32.85C551.754 31.71 551.859 30.48 551.979 29.16C552.129 27.81 552.279 26.475 552.429 25.155C552.579 23.835 552.729 22.62 552.879 21.51C552.939 21.09 552.864 20.82 552.654 20.7C552.474 20.58 552.309 20.715 552.159 21.105C551.769 22.125 551.349 23.235 550.899 24.435C550.449 25.635 550.029 26.685 549.639 27.585C549.009 29.085 548.274 30.69 547.434 32.4C546.624 34.11 545.739 35.73 544.779 37.26C543.819 38.76 542.814 39.99 541.764 40.95C540.714 41.91 539.664 42.39 538.614 42.39Z" fill="black"/>
<path id="Vector_4" d="M503.956 13.005C502.516 13.005 501.451 12.87 500.761 12.6C500.101 12.3 499.666 11.955 499.456 11.565C499.276 11.145 499.186 10.77 499.186 10.44C499.186 10.02 499.426 9.54001 499.906 9.00001C500.386 8.43001 501.316 8.01001 502.696 7.74001C504.076 7.44001 505.711 7.17001 507.601 6.93001C509.491 6.66001 511.501 6.43501 513.631 6.25501C515.761 6.04501 517.921 5.86501 520.111 5.71501C522.301 5.56501 524.386 5.46001 526.366 5.40001C528.346 5.31001 530.101 5.26501 531.631 5.26501C533.221 5.26501 534.451 5.35501 535.321 5.53501C536.191 5.71501 536.806 5.94001 537.166 6.21001C537.556 6.48001 537.781 6.76501 537.841 7.06501C537.931 7.36501 537.976 7.65001 537.976 7.92001C537.976 7.98001 537.976 8.02501 537.976 8.05501C537.976 8.41501 537.886 8.80501 537.706 9.22501C537.556 9.64501 537.211 10.005 536.671 10.305C536.131 10.575 535.321 10.71 534.241 10.71C533.851 10.71 532.981 10.77 531.631 10.89C530.281 11.01 528.631 11.16 526.681 11.34C524.731 11.52 522.661 11.7 520.471 11.88C520.141 13.23 519.766 14.805 519.346 16.605C518.956 18.405 518.551 20.295 518.131 22.275C517.741 24.255 517.366 26.205 517.006 28.125C516.646 30.015 516.346 31.77 516.106 33.39C515.866 34.98 515.701 36.285 515.611 37.305C515.491 38.685 515.086 39.66 514.396 40.23C513.736 40.77 513.076 41.04 512.416 41.04C511.936 41.04 511.456 40.935 510.976 40.725C510.496 40.545 510.106 40.14 509.806 39.51C509.506 38.85 509.356 37.875 509.356 36.585C509.356 35.265 509.476 33.645 509.716 31.725C509.956 29.775 510.271 27.69 510.661 25.47C511.081 23.25 511.546 21.015 512.056 18.765C512.596 16.515 513.151 14.415 513.721 12.465C511.711 12.615 509.851 12.75 508.141 12.87C506.431 12.96 505.036 13.005 503.956 13.005Z" fill="black"/>
<path id="Vector_5" d="M456.768 42.39C456.018 42.39 455.373 42.12 454.833 41.58C454.323 41.04 454.068 40.26 454.068 39.24C454.068 38.79 454.128 38.055 454.248 37.035C454.398 35.985 454.578 34.785 454.788 33.435C455.028 32.085 455.253 30.675 455.463 29.205C455.703 27.735 455.898 26.34 456.048 25.02C456.228 23.7 456.348 22.575 456.408 21.645C456.468 20.505 456.768 19.695 457.308 19.215C457.848 18.705 458.493 18.45 459.243 18.45C459.843 18.45 460.383 18.6 460.863 18.9C461.373 19.17 461.688 19.755 461.808 20.655C461.958 21.525 461.973 22.785 461.853 24.435C463.173 22.035 464.508 19.89 465.858 18C467.238 16.11 468.678 14.61 470.178 13.5C472.668 11.61 474.918 10.665 476.928 10.665C478.068 10.665 478.818 10.92 479.178 11.43C479.538 11.94 479.718 12.465 479.718 13.005C479.718 13.365 479.628 13.695 479.448 13.995C479.298 14.295 478.968 14.61 478.458 14.94C477.948 15.27 477.168 15.705 476.118 16.245C474.708 16.965 473.313 17.91 471.933 19.08C470.583 20.25 469.233 21.75 467.883 23.58C466.533 25.41 465.168 27.66 463.788 30.33C462.408 33 460.983 36.18 459.513 39.87C459.243 40.89 458.853 41.565 458.343 41.895C457.863 42.225 457.338 42.39 456.768 42.39Z" fill="black"/>
<path id="Vector_6" d="M435.886 41.8951C433.756 41.8951 432.046 41.1451 430.756 39.6451C429.466 38.1151 428.821 36.0751 428.821 33.5251C428.821 32.7151 428.926 31.8901 429.136 31.0501C429.376 30.2101 429.661 29.4301 429.991 28.7101C429.811 28.4401 429.661 28.0951 429.541 27.6751C429.451 27.2251 429.406 26.7001 429.406 26.1001C429.406 24.1501 429.751 22.3651 430.441 20.7451C431.131 19.0951 432.061 17.6701 433.231 16.4701C434.401 15.2701 435.691 14.3401 437.101 13.6801C438.511 13.0201 439.936 12.6901 441.376 12.6901C443.836 12.6901 445.846 13.5151 447.406 15.1651C448.996 16.8151 449.791 19.3801 449.791 22.8601C449.791 24.6001 449.521 26.3701 448.981 28.1701C448.441 29.9701 447.706 31.6951 446.776 33.3451C445.876 34.9651 444.826 36.4201 443.626 37.7101C442.456 39.0001 441.196 40.0201 439.846 40.7701C438.526 41.5201 437.206 41.8951 435.886 41.8951ZM435.166 26.6851C435.316 27.0151 435.391 27.4051 435.391 27.8551C435.391 28.3051 435.301 28.7701 435.121 29.2501C434.941 29.7301 434.761 30.3751 434.581 31.1851C434.401 31.9651 434.311 33.0901 434.311 34.5601C434.311 34.9501 434.356 35.2801 434.446 35.5501C434.566 35.7901 434.821 35.9101 435.211 35.9101C436.231 35.9101 437.191 35.5801 438.091 34.9201C439.021 34.2601 439.846 33.3901 440.566 32.3101C441.316 31.2301 441.946 30.0301 442.456 28.7101C442.996 27.3601 443.401 25.9951 443.671 24.6151C443.971 23.2051 444.121 21.9001 444.121 20.7001C444.121 19.9201 443.971 19.3801 443.671 19.0801C443.371 18.7801 442.846 18.6301 442.096 18.6301C441.076 18.6301 440.026 18.9601 438.946 19.6201C437.896 20.2501 437.011 21.1201 436.291 22.2301C435.571 23.3101 435.211 24.5401 435.211 25.9201C435.211 26.1901 435.196 26.4451 435.166 26.6851Z" fill="black"/>
<path id="Vector_7" d="M410.626 45.45C409.876 45.45 409.231 45.225 408.691 44.775C408.151 44.355 407.911 43.485 407.971 42.165C408.031 40.695 408.136 39.165 408.286 37.575C408.436 35.985 408.601 34.5 408.781 33.12C409.171 30.09 409.261 27.75 409.051 26.1C408.871 24.42 408.406 23.22 407.656 22.5C406.936 21.78 405.961 21.3 404.731 21.06C404.131 20.94 403.651 20.715 403.291 20.385C402.931 20.025 402.751 19.56 402.751 18.99C402.751 18.24 403.051 17.745 403.651 17.505C404.221 17.265 404.956 17.145 405.856 17.145C406.546 17.145 407.431 17.19 408.511 17.28C409.621 17.34 410.806 17.385 412.066 17.415C413.116 13.965 414.301 11.115 415.621 8.865C416.941 6.615 418.381 4.845 419.941 3.555C421.501 2.235 423.151 1.32 424.891 0.81C426.631 0.27 428.431 0 430.291 0C432.601 0 433.756 0.825 433.756 2.475C433.756 3.285 433.366 3.9 432.586 4.32C431.806 4.74 430.621 5.085 429.031 5.355C427.141 5.685 425.476 6.3 424.036 7.2C422.626 8.1 421.381 9.375 420.301 11.025C419.251 12.675 418.321 14.805 417.511 17.415C421.681 17.325 425.101 17.1 427.771 16.74C430.441 16.38 432.496 16.035 433.936 15.705C435.406 15.345 436.426 15.165 436.996 15.165C437.806 15.165 438.301 15.36 438.481 15.75C438.691 16.14 438.796 16.56 438.796 17.01C438.796 17.52 438.316 18.045 437.356 18.585C436.726 18.945 435.721 19.35 434.341 19.8C432.961 20.22 431.341 20.64 429.481 21.06C427.621 21.45 425.656 21.78 423.586 22.05C421.546 22.29 419.551 22.41 417.601 22.41C417.121 22.41 416.686 22.41 416.296 22.41C415.966 24.15 415.636 25.995 415.306 27.945C415.006 29.865 414.736 31.74 414.496 33.57C414.256 35.4 414.046 37.065 413.866 38.565C413.716 40.065 413.626 41.265 413.596 42.165C413.566 43.275 413.281 44.1 412.741 44.64C412.201 45.18 411.496 45.45 410.626 45.45Z" fill="black"/>
<path id="Vector_8" d="M372.599 16.335C374.249 12.405 375.704 8.35501 376.964 4.18501C377.204 3.34501 377.549 2.70001 377.999 2.25001C378.479 1.80001 379.139 1.57501 379.979 1.57501C380.669 1.57501 381.194 1.78501 381.554 2.20501C381.914 2.59501 382.094 3.13501 382.094 3.82501C382.094 4.39501 381.854 5.41501 381.374 6.88501C380.894 8.32501 380.309 10.155 379.619 12.375C378.929 14.595 378.239 17.16 377.549 20.07C376.859 22.98 376.274 26.175 375.794 29.655C375.314 33.135 375.074 36.855 375.074 40.815C375.074 41.895 374.864 42.78 374.444 43.47C374.054 44.19 373.364 44.55 372.374 44.55C371.294 44.55 370.499 44.175 369.989 43.425C369.509 42.675 369.269 41.715 369.269 40.545C369.269 38.235 369.344 36.315 369.494 34.785C369.674 33.225 369.854 31.89 370.034 30.78C368.564 33.3 367.004 35.475 365.354 37.305C363.734 39.105 362.174 40.485 360.674 41.445C359.174 42.435 357.884 42.93 356.804 42.93C355.034 42.93 353.594 42.435 352.484 41.445C351.374 40.455 350.819 38.955 350.819 36.945C350.819 35.385 351.194 33.78 351.944 32.13C352.694 30.45 353.684 28.8 354.914 27.18C356.144 25.56 357.494 24.045 358.964 22.635C360.464 21.195 361.964 19.935 363.464 18.855C364.964 17.745 366.359 16.875 367.649 16.245C368.939 15.615 369.989 15.3 370.799 15.3C371.699 15.3 372.299 15.645 372.599 16.335ZM371.564 18.765C371.384 18.885 371.189 19.005 370.979 19.125C370.799 19.215 370.619 19.32 370.439 19.44C369.299 20.16 368.084 21.03 366.794 22.05C365.504 23.04 364.229 24.15 362.969 25.38C361.709 26.58 360.554 27.84 359.504 29.16C358.484 30.45 357.659 31.74 357.029 33.03C356.429 34.29 356.129 35.505 356.129 36.675C356.129 36.885 356.219 37.035 356.399 37.125C356.579 37.215 356.744 37.26 356.894 37.26C357.944 37.26 359.069 36.795 360.269 35.865C361.499 34.935 362.744 33.645 364.004 31.995C365.294 30.315 366.569 28.35 367.829 26.1C369.119 23.85 370.364 21.405 371.564 18.765Z" fill="#B80B0B"/>
<path id="Vector_9" d="M332.28 41.94C330.42 41.94 328.92 41.295 327.78 40.005C326.64 38.685 326.07 36.57 326.07 33.66C326.07 31.8 326.28 29.94 326.7 28.08C327.15 26.19 327.765 24.405 328.545 22.725C329.355 21.015 330.285 19.5 331.335 18.18C332.415 16.86 333.6 15.825 334.89 15.075C336.18 14.295 337.515 13.905 338.895 13.905C341.235 13.905 343.065 14.535 344.385 15.795C345.705 17.055 346.365 18.66 346.365 20.61C346.365 22.11 345.945 23.475 345.105 24.705C344.295 25.905 343.185 26.985 341.775 27.945C340.365 28.905 338.79 29.775 337.05 30.555C335.31 31.335 333.525 32.04 331.695 32.67C331.545 33.75 331.47 34.71 331.47 35.55C331.47 36.06 331.755 36.315 332.325 36.315C333.675 36.315 335.115 36.105 336.645 35.685C338.205 35.235 339.78 34.665 341.37 33.975C342.96 33.255 344.49 32.52 345.96 31.77C347.43 30.99 348.765 30.255 349.965 29.565C351.195 28.845 352.2 28.275 352.98 27.855C353.79 27.405 354.315 27.18 354.555 27.18C355.215 27.18 355.695 27.375 355.995 27.765C356.295 28.155 356.445 28.575 356.445 29.025C356.445 29.235 356.04 29.7 355.23 30.42C354.45 31.14 353.37 31.995 351.99 32.985C350.64 33.945 349.11 34.95 347.4 36C345.72 37.02 343.965 37.995 342.135 38.925C340.335 39.825 338.58 40.545 336.87 41.085C335.19 41.655 333.66 41.94 332.28 41.94ZM332.46 28.665C333.69 27.945 334.905 27.195 336.105 26.415C337.335 25.605 338.355 24.705 339.165 23.715C339.975 22.695 340.38 21.51 340.38 20.16C340.38 19.77 340.275 19.515 340.065 19.395C339.855 19.245 339.555 19.17 339.165 19.17C338.115 19.17 337.155 19.635 336.285 20.565C335.445 21.495 334.695 22.695 334.035 24.165C333.405 25.605 332.88 27.105 332.46 28.665Z" fill="#B80B0B"/>
<path id="Vector_10" d="M305.374 40.365C304.594 40.365 303.904 39.99 303.304 39.24C302.734 38.49 302.299 37.335 301.999 35.775C301.759 34.455 301.549 32.955 301.369 31.275C301.189 29.595 301.024 27.945 300.874 26.325C300.754 24.675 300.664 23.235 300.604 22.005C300.544 20.775 300.514 19.935 300.514 19.485C300.514 17.865 300.799 16.53 301.369 15.48C301.939 14.4 303.034 13.86 304.654 13.86C305.344 13.86 305.869 14.16 306.229 14.76C306.589 15.33 306.769 16.125 306.769 17.145C306.769 17.775 306.769 18.57 306.769 19.53C306.799 20.46 306.829 21.51 306.859 22.68C306.889 23.97 306.919 25.365 306.949 26.865C307.009 28.335 307.039 29.805 307.039 31.275C308.089 29.625 309.214 27.87 310.414 26.01C311.614 24.12 312.784 22.29 313.924 20.52C315.094 18.75 316.144 17.19 317.074 15.84C318.004 14.46 318.709 13.485 319.189 12.915C319.609 12.405 320.119 11.97 320.719 11.61C321.319 11.22 321.949 11.025 322.609 11.025C323.329 11.025 323.929 11.31 324.409 11.88C324.889 12.45 325.129 13.11 325.129 13.86C325.129 14.43 325.009 14.97 324.769 15.48C324.559 15.99 324.289 16.47 323.959 16.92C323.059 18.18 321.994 19.65 320.764 21.33C319.564 23.01 318.304 24.78 316.984 26.64C315.664 28.47 314.374 30.24 313.114 31.95C311.884 33.66 310.789 35.175 309.829 36.495C309.049 37.605 308.419 38.445 307.939 39.015C307.459 39.555 307.024 39.915 306.634 40.095C306.274 40.275 305.854 40.365 305.374 40.365Z" fill="#B80B0B"/>
<path id="Vector_11" d="M269.004 20.925C269.004 22.875 267.894 24.81 265.674 26.73C263.484 28.62 260.079 30.3 255.459 31.77C255.459 31.8 255.459 31.845 255.459 31.905C255.459 32.895 255.579 33.69 255.819 34.29C256.059 34.86 256.584 35.145 257.394 35.145C258.594 35.145 259.929 34.785 261.399 34.065C262.899 33.315 264.444 32.37 266.034 31.23C267.654 30.06 269.229 28.83 270.759 27.54C272.289 26.25 273.699 25.035 274.989 23.895C276.309 22.725 277.419 21.78 278.319 21.06C279.249 20.31 279.864 19.935 280.164 19.935C280.794 19.935 281.319 20.175 281.739 20.655C282.189 21.135 282.414 21.855 282.414 22.815C282.414 23.355 282.384 24 282.324 24.75C283.644 22.47 285.174 20.595 286.914 19.125C288.654 17.625 290.364 16.515 292.044 15.795C293.754 15.045 295.209 14.67 296.409 14.67C297.759 14.67 298.674 14.94 299.154 15.48C299.634 15.99 299.874 16.53 299.874 17.1C299.874 17.43 299.799 17.76 299.649 18.09C299.529 18.39 299.199 18.72 298.659 19.08C298.149 19.44 297.294 19.86 296.094 20.34C294.504 20.94 292.989 21.645 291.549 22.455C290.139 23.265 288.834 24.375 287.634 25.785C286.464 27.165 285.399 29.025 284.439 31.365C283.509 33.675 282.729 36.645 282.099 40.275C281.889 41.295 281.559 41.985 281.109 42.345C280.659 42.735 280.134 42.93 279.534 42.93C279.474 42.93 279.369 42.93 279.219 42.93C278.949 42.96 278.664 42.93 278.364 42.84C278.094 42.78 277.824 42.525 277.554 42.075C277.314 41.655 277.119 40.92 276.969 39.87C276.819 38.82 276.744 37.32 276.744 35.37C276.744 34.2 276.789 32.97 276.879 31.68C276.999 30.36 277.149 28.995 277.329 27.585C275.799 29.085 274.164 30.6 272.424 32.13C270.684 33.66 268.884 35.07 267.024 36.36C265.194 37.62 263.394 38.64 261.624 39.42C259.884 40.2 258.264 40.59 256.764 40.59C254.754 40.59 253.104 39.945 251.814 38.655C250.554 37.335 249.924 35.31 249.924 32.58C249.924 29.88 250.284 27.435 251.004 25.245C251.754 23.025 252.714 21.12 253.884 19.53C255.054 17.94 256.299 16.725 257.619 15.885C258.969 15.015 260.229 14.58 261.399 14.58C263.889 14.58 265.779 15.18 267.069 16.38C268.359 17.55 269.004 19.065 269.004 20.925ZM256.044 27.765C256.824 27.375 257.649 26.925 258.519 26.415C259.419 25.875 260.259 25.32 261.039 24.75C261.819 24.15 262.449 23.565 262.929 22.995C263.439 22.425 263.694 21.885 263.694 21.375C263.694 20.535 263.454 20.025 262.974 19.845C262.524 19.635 261.909 19.53 261.129 19.53C260.319 19.53 259.584 19.965 258.924 20.835C258.264 21.675 257.694 22.725 257.214 23.985C256.734 25.245 256.344 26.505 256.044 27.765Z" fill="#B80B0B"/>
<path id="Vector_12" d="M227.251 42.7051C225.961 42.7051 225.046 42.5251 224.506 42.1651C223.996 41.8051 223.741 41.2801 223.741 40.5901C223.741 39.9901 223.951 39.4801 224.371 39.0601C224.791 38.6101 225.721 38.1601 227.161 37.7101C228.841 37.2001 230.431 36.6151 231.931 35.9551C233.461 35.2651 234.706 34.5151 235.666 33.7051C236.656 32.8951 237.151 32.0401 237.151 31.1401C237.151 30.5401 236.941 30.1051 236.521 29.8351C236.131 29.5651 235.666 29.4301 235.126 29.4301C234.676 29.4301 234.016 29.5051 233.146 29.6551C232.306 29.7751 231.376 29.9401 230.356 30.1501C229.336 30.3301 228.346 30.4951 227.386 30.6451C226.456 30.7651 225.661 30.8251 225.001 30.8251C223.441 30.8251 222.286 30.4801 221.536 29.7901C220.786 29.0701 220.411 28.1551 220.411 27.0451C220.411 26.4451 220.726 25.6201 221.356 24.5701C221.986 23.5201 222.826 22.3651 223.876 21.1051C224.926 19.8451 226.096 18.5851 227.386 17.3251C228.676 16.0651 229.981 14.9101 231.301 13.8601C232.651 12.7801 233.926 11.9251 235.126 11.2951C236.326 10.6351 237.346 10.3051 238.186 10.3051C239.146 10.3051 239.911 10.6051 240.481 11.2051C241.081 11.8051 241.381 12.6151 241.381 13.6351C241.381 14.1151 241.336 14.6401 241.246 15.2101C241.156 15.7501 240.931 16.2451 240.571 16.6951C240.211 17.1151 239.656 17.4151 238.906 17.5951C238.156 17.7751 237.136 17.7451 235.846 17.5051C234.826 18.2551 233.761 19.0801 232.651 19.9801C231.571 20.8501 230.551 21.7651 229.591 22.7251C228.631 23.6551 227.836 24.5701 227.206 25.4701C228.316 25.1101 229.576 24.8251 230.986 24.6151C232.396 24.3751 233.821 24.2551 235.261 24.2551C237.001 24.2551 238.411 24.5701 239.491 25.2001C240.601 25.8001 241.411 26.6101 241.921 27.6301C242.461 28.6501 242.731 29.7751 242.731 31.0051C242.731 32.3851 242.281 33.7651 241.381 35.1451C240.481 36.5251 239.281 37.7851 237.781 38.9251C236.281 40.0651 234.616 40.9801 232.786 41.6701C230.956 42.3601 229.111 42.7051 227.251 42.7051Z" fill="#B80B0B"/>
<path id="Vector_13" d="M201.63 41.94C199.77 41.94 198.27 41.295 197.13 40.005C195.99 38.685 195.42 36.57 195.42 33.66C195.42 31.8 195.63 29.94 196.05 28.08C196.5 26.19 197.115 24.405 197.895 22.725C198.705 21.015 199.635 19.5 200.685 18.18C201.765 16.86 202.95 15.825 204.24 15.075C205.53 14.295 206.865 13.905 208.245 13.905C210.585 13.905 212.415 14.535 213.735 15.795C215.055 17.055 215.715 18.66 215.715 20.61C215.715 22.11 215.295 23.475 214.455 24.705C213.645 25.905 212.535 26.985 211.125 27.945C209.715 28.905 208.14 29.775 206.4 30.555C204.66 31.335 202.875 32.04 201.045 32.67C200.895 33.75 200.82 34.71 200.82 35.55C200.82 36.06 201.105 36.315 201.675 36.315C203.025 36.315 204.465 36.105 205.995 35.685C207.555 35.235 209.13 34.665 210.72 33.975C212.31 33.255 213.84 32.52 215.31 31.77C216.78 30.99 218.115 30.255 219.315 29.565C220.545 28.845 221.55 28.275 222.33 27.855C223.14 27.405 223.665 27.18 223.905 27.18C224.565 27.18 225.045 27.375 225.345 27.765C225.645 28.155 225.795 28.575 225.795 29.025C225.795 29.235 225.39 29.7 224.58 30.42C223.8 31.14 222.72 31.995 221.34 32.985C219.99 33.945 218.46 34.95 216.75 36C215.07 37.02 213.315 37.995 211.485 38.925C209.685 39.825 207.93 40.545 206.22 41.085C204.54 41.655 203.01 41.94 201.63 41.94ZM201.81 28.665C203.04 27.945 204.255 27.195 205.455 26.415C206.685 25.605 207.705 24.705 208.515 23.715C209.325 22.695 209.73 21.51 209.73 20.16C209.73 19.77 209.625 19.515 209.415 19.395C209.205 19.245 208.905 19.17 208.515 19.17C207.465 19.17 206.505 19.635 205.635 20.565C204.795 21.495 204.045 22.695 203.385 24.165C202.755 25.605 202.23 27.105 201.81 28.665Z" fill="#B80B0B"/>
<path id="Vector_14" d="M158.788 40.1851C157.678 40.1851 156.853 39.7501 156.313 38.8801C155.773 37.9801 155.503 36.3601 155.503 34.0201C155.503 31.02 155.773 28.065 156.313 25.155C156.883 22.245 157.678 19.515 158.698 16.965C159.748 14.4151 161.008 12.1801 162.478 10.26C163.978 8.31005 165.673 6.79505 167.563 5.71505C169.453 4.60505 171.508 4.05005 173.728 4.05005C177.028 4.05005 179.473 4.93505 181.063 6.70505C182.683 8.44505 183.493 11.01 183.493 14.4001C183.493 16.2001 183.133 17.8051 182.413 19.215C181.693 20.595 180.748 21.6901 179.578 22.5C178.438 23.2801 177.208 23.67 175.888 23.67C175.138 23.67 174.343 23.535 173.503 23.265C175.123 25.365 176.743 27.1951 178.363 28.7551C180.013 30.3151 181.648 31.755 183.268 33.0751C184.918 34.3651 186.568 35.685 188.218 37.035C189.088 37.725 189.583 38.4601 189.703 39.2401C189.823 40.0201 189.613 40.6801 189.073 41.2201C188.563 41.7901 187.768 42.0751 186.688 42.0751C185.848 42.0751 184.783 41.7001 183.493 40.9501C182.203 40.2301 180.808 39.2551 179.308 38.0251C177.808 36.7651 176.308 35.37 174.808 33.84C173.338 32.31 171.988 30.75 170.758 29.16C169.558 27.57 168.583 26.0551 167.833 24.6151C167.113 23.1751 166.753 21.945 166.753 20.925C166.753 19.965 167.008 19.23 167.518 18.72C168.028 18.18 168.688 17.9101 169.498 17.9101C170.158 17.9101 170.758 18.0001 171.298 18.18C171.868 18.36 172.468 18.45 173.098 18.45C173.758 18.45 174.448 18.27 175.168 17.9101C175.918 17.55 176.548 16.995 177.058 16.2451C177.568 15.465 177.823 14.475 177.823 13.275C177.823 11.955 177.448 11.07 176.698 10.62C175.978 10.17 175.003 9.94505 173.773 9.94505C172.063 9.94505 170.518 10.545 169.138 11.745C167.758 12.9451 166.558 14.64 165.538 16.83C164.518 19.02 163.693 21.6 163.063 24.57C162.463 27.54 162.058 30.7801 161.848 34.2901C161.728 36.5701 161.428 38.1301 160.948 38.9701C160.468 39.7801 159.748 40.1851 158.788 40.1851Z" fill="#B80B0B"/>
<path id="Vector_15" d="M112.489 55.485C109.789 56.205 108.439 55.74 108.439 54.09C108.439 53.22 108.949 52.5 109.969 51.93C111.469 51 112.684 49.635 113.614 47.835C114.514 46.035 115.219 43.995 115.729 41.715C116.269 39.435 116.689 37.125 116.989 34.785C117.139 33.825 117.424 33.195 117.844 32.895C118.264 32.565 118.714 32.4 119.194 32.4C120.124 32.4 120.994 32.775 121.804 33.525C122.614 34.245 123.019 35.445 123.019 37.125C123.019 39.405 122.674 41.58 121.984 43.65C121.324 45.72 120.454 47.58 119.374 49.23C118.324 50.91 117.184 52.29 115.954 53.37C114.724 54.45 113.569 55.155 112.489 55.485Z" fill="black"/>
<path id="Vector_16" d="M88.5591 41.94C86.6991 41.94 85.1991 41.295 84.0591 40.005C82.9191 38.685 82.3491 36.57 82.3491 33.66C82.3491 31.8 82.5591 29.94 82.9791 28.08C83.4291 26.19 84.0441 24.405 84.8241 22.725C85.6341 21.015 86.5641 19.5 87.6141 18.18C88.6941 16.86 89.8791 15.825 91.1691 15.075C92.4591 14.295 93.7941 13.905 95.1741 13.905C97.5141 13.905 99.3441 14.535 100.664 15.795C101.984 17.055 102.644 18.66 102.644 20.61C102.644 22.11 102.224 23.475 101.384 24.705C100.574 25.905 99.4641 26.985 98.0541 27.945C96.6441 28.905 95.0691 29.775 93.3291 30.555C91.5891 31.335 89.8041 32.04 87.9741 32.67C87.8241 33.75 87.7491 34.71 87.7491 35.55C87.7491 36.06 88.0341 36.315 88.6041 36.315C89.9541 36.315 91.3941 36.105 92.9241 35.685C94.4841 35.235 96.0591 34.665 97.6491 33.975C99.2391 33.255 100.769 32.52 102.239 31.77C103.709 30.99 105.044 30.255 106.244 29.565C107.474 28.845 108.479 28.275 109.259 27.855C110.069 27.405 110.594 27.18 110.834 27.18C111.494 27.18 111.974 27.375 112.274 27.765C112.574 28.155 112.724 28.575 112.724 29.025C112.724 29.235 112.319 29.7 111.509 30.42C110.729 31.14 109.649 31.995 108.269 32.985C106.919 33.945 105.389 34.95 103.679 36C101.999 37.02 100.244 37.995 98.4141 38.925C96.6141 39.825 94.8591 40.545 93.1491 41.085C91.4691 41.655 89.9391 41.94 88.5591 41.94ZM88.7391 28.665C89.9691 27.945 91.1841 27.195 92.3841 26.415C93.6141 25.605 94.6341 24.705 95.4441 23.715C96.2541 22.695 96.6591 21.51 96.6591 20.16C96.6591 19.77 96.5541 19.515 96.3441 19.395C96.1341 19.245 95.8341 19.17 95.4441 19.17C94.3941 19.17 93.4341 19.635 92.5641 20.565C91.7241 21.495 90.9741 22.695 90.3141 24.165C89.6841 25.605 89.1591 27.105 88.7391 28.665Z" fill="black"/>
<path id="Vector_17" d="M61.653 40.365C60.873 40.365 60.183 39.99 59.583 39.24C59.013 38.49 58.578 37.335 58.278 35.775C58.038 34.455 57.828 32.955 57.648 31.275C57.468 29.595 57.303 27.945 57.153 26.325C57.033 24.675 56.943 23.235 56.883 22.005C56.823 20.775 56.793 19.935 56.793 19.485C56.793 17.865 57.078 16.53 57.648 15.48C58.218 14.4 59.313 13.86 60.933 13.86C61.623 13.86 62.148 14.16 62.508 14.76C62.868 15.33 63.048 16.125 63.048 17.145C63.048 17.775 63.048 18.57 63.048 19.53C63.078 20.46 63.108 21.51 63.138 22.68C63.168 23.97 63.198 25.365 63.228 26.865C63.288 28.335 63.318 29.805 63.318 31.275C64.368 29.625 65.493 27.87 66.693 26.01C67.893 24.12 69.063 22.29 70.203 20.52C71.373 18.75 72.423 17.19 73.353 15.84C74.283 14.46 74.988 13.485 75.468 12.915C75.888 12.405 76.398 11.97 76.998 11.61C77.598 11.22 78.228 11.025 78.888 11.025C79.608 11.025 80.208 11.31 80.688 11.88C81.168 12.45 81.408 13.11 81.408 13.86C81.408 14.43 81.288 14.97 81.048 15.48C80.838 15.99 80.568 16.47 80.238 16.92C79.338 18.18 78.273 19.65 77.043 21.33C75.843 23.01 74.583 24.78 73.263 26.64C71.943 28.47 70.653 30.24 69.393 31.95C68.163 33.66 67.068 35.175 66.108 36.495C65.328 37.605 64.698 38.445 64.218 39.015C63.738 39.555 63.303 39.915 62.913 40.095C62.553 40.275 62.133 40.365 61.653 40.365Z" fill="black"/>
<path id="Vector_18" d="M36.1592 41.8951C34.0292 41.8951 32.3192 41.1451 31.0292 39.6451C29.7392 38.1151 29.0942 36.0751 29.0942 33.5251C29.0942 32.7151 29.1992 31.8901 29.4092 31.0501C29.6492 30.2101 29.9342 29.4301 30.2642 28.7101C30.0842 28.4401 29.9342 28.0951 29.8142 27.6751C29.7242 27.2251 29.6792 26.7001 29.6792 26.1001C29.6792 24.1501 30.0242 22.3651 30.7142 20.7451C31.4042 19.0951 32.3342 17.6701 33.5042 16.4701C34.6742 15.2701 35.9642 14.3401 37.3742 13.6801C38.7842 13.0201 40.2092 12.6901 41.6492 12.6901C44.1092 12.6901 46.1192 13.5151 47.6792 15.1651C49.2692 16.8151 50.0642 19.3801 50.0642 22.8601C50.0642 24.6001 49.7942 26.3701 49.2542 28.1701C48.7142 29.9701 47.9792 31.6951 47.0492 33.3451C46.1492 34.9651 45.0992 36.4201 43.8992 37.7101C42.7292 39.0001 41.4692 40.0201 40.1192 40.7701C38.7992 41.5201 37.4792 41.8951 36.1592 41.8951ZM35.4392 26.6851C35.5892 27.0151 35.6642 27.4051 35.6642 27.8551C35.6642 28.3051 35.5742 28.7701 35.3942 29.2501C35.2142 29.7301 35.0342 30.3751 34.8542 31.1851C34.6742 31.9651 34.5842 33.0901 34.5842 34.5601C34.5842 34.9501 34.6292 35.2801 34.7192 35.5501C34.8392 35.7901 35.0942 35.9101 35.4842 35.9101C36.5042 35.9101 37.4642 35.5801 38.3642 34.9201C39.2942 34.2601 40.1192 33.3901 40.8392 32.3101C41.5892 31.2301 42.2192 30.0301 42.7292 28.7101C43.2692 27.3601 43.6742 25.9951 43.9442 24.6151C44.2442 23.2051 44.3942 21.9001 44.3942 20.7001C44.3942 19.9201 44.2442 19.3801 43.9442 19.0801C43.6442 18.7801 43.1192 18.6301 42.3692 18.6301C41.3492 18.6301 40.2992 18.9601 39.2192 19.6201C38.1692 20.2501 37.2842 21.1201 36.5642 22.2301C35.8442 23.3101 35.4842 24.5401 35.4842 25.9201C35.4842 26.1901 35.4692 26.4451 35.4392 26.6851Z" fill="black"/>
<path id="Vector_19" d="M7.74 42.75C6.63 42.75 5.475 42.4801 4.275 41.9401C3.075 41.4301 2.055 40.5601 1.215 39.3301C0.405 38.1001 0 36.465 0 34.425C0 32.265 0.18 30.0301 0.539999 27.7201C0.93 25.3801 1.425 23.085 2.025 20.835C2.655 18.555 3.33 16.41 4.05 14.4001C4.8 12.39 5.535 10.605 6.255 9.04505C7.005 7.48505 7.695 6.27005 8.325 5.40005C8.985 4.50005 9.51 4.05005 9.9 4.05005C10.71 4.05005 11.43 4.35005 12.06 4.95005C12.72 5.55005 13.05 6.46505 13.05 7.69505C13.05 7.99505 12.87 8.73005 12.51 9.90005C12.18 11.04 11.745 12.465 11.205 14.175C10.695 15.885 10.125 17.745 9.495 19.755C8.895 21.735 8.325 23.745 7.785 25.785C7.275 27.825 6.84 29.7451 6.48 31.5451C6.15 33.3451 5.985 34.89 5.985 36.18C5.985 36.54 6.195 36.7201 6.615 36.7201C7.215 36.7201 8.1 36.5701 9.27 36.2701C10.47 35.9701 11.775 35.5951 13.185 35.1451C14.625 34.6651 16.005 34.2 17.325 33.75C18.645 33.3 19.77 32.925 20.7 32.625C21.63 32.325 22.155 32.175 22.275 32.175C23.025 32.175 23.625 32.385 24.075 32.805C24.525 33.2251 24.75 33.825 24.75 34.605C24.75 35.145 24.39 35.775 23.67 36.495C22.95 37.185 21.99 37.9051 20.79 38.6551C19.59 39.3751 18.24 40.0351 16.74 40.6351C15.27 41.2651 13.755 41.7751 12.195 42.1651C10.635 42.5551 9.15 42.75 7.74 42.75Z" fill="black"/>
</g>
</svg>
